<svg xmlns="http://www.w3.org/2000/svg" xmlns:xlink="http://www.w3.org/1999/xlink" width="18" height="19" viewBox="0 0 18 19">
    <defs>
        <path id="a" d="M10.054 13.036c2.27-.112 7.04-.025 7.04-.025a1.777 1.777 0 0 1 1.741 1.776v-.193c0 .967-.775 1.775-1.734 1.801 0 0-4.38.156-6.82.027-.096-.005-.154-.05-.227-.077.568-1.626.186-2.684 0-3.31z"/>
    </defs>
    <g fill="none" fill-rule="evenodd">
        <ellipse cx="6.585" cy="6.563" stroke="#464747" stroke-opacity=".4" stroke-width="2" rx="5.585" ry="5.563"/>
        <g transform="rotate(45 14.445 14.726)">
            <use fill="#464747" fill-opacity=".4" xlink:href="#a"/>
            <path stroke="#B5B5B5" d="M18.331 14.69c.003.033.004.065.004.097h1v-.193h-1c0 .032-.001.065-.004.097zm-7.633 1.25a26.974 26.974 0 0 1-.39-.017c.025.001.04.006.025-.001l-.007-.004c-.037-.017-.037-.017-.095-.04l-.177.467.473.165a6.68 6.68 0 0 0 .171-.57zm.01-2.43a6.733 6.733 0 0 0-.065-.25c-.028-.099-.13-.44-.11-.367l-.454.642c.19-.01.4-.017.63-.024zm0 0a86.23 86.23 0 0 1 2.28-.03 205.195 205.195 0 0 1 3.791.026l.305.005c.658.01 1.198.53 1.247 1.18-.049.655-.59 1.187-1.244 1.205l-.377.012a148.078 148.078 0 0 1-3.817.065c-.84.001-1.58-.01-2.195-.033.222-.88.2-1.64.01-2.43z"/>
        </g>
    </g>
</svg>
