<svg id="Ebene_1" data-name="Ebene 1" xmlns="http://www.w3.org/2000/svg" viewBox="0 0 259.43 42.75"><defs><style>.cls-1{fill:#1b1b1d;}</style></defs><title>170428_Portyr_logo</title><path class="cls-1" d="M1115.6,1698.66a16.46,16.46,0,0,1,17-28.05l2.37-3.91c-10.14-5.05-22.11-2-27.92,7.56s-3,21.68,6.12,28.36Z" transform="translate(-1063 -1664.29)"/><path class="cls-1" d="M1137.58,1668.22l-2.36,3.89a16.49,16.49,0,0,1-17.1,28.18l-2.39,3.94c10.28,5.65,22.86,2.57,28.8-7.22s2.8-22.28-7-28.78" transform="translate(-1063 -1664.29)"/><polygon class="cls-1" points="52.9 21 60.9 16.83 60.91 25.86 52.9 21"/><rect class="cls-1" x="1110.25" y="1690.05" width="14.04" height="4" transform="translate(-1971.91 104.73) rotate(-58.74)"/><polygon class="cls-1" points="63.91 16.35 63.91 25.36 71.92 21.2 63.91 16.35"/><rect class="cls-1" x="1126.52" y="1676.74" width="14.04" height="4" transform="translate(-1952.66 113.04) rotate(-58.76)"/><path class="cls-1" d="M1079.22,1665H1063v42h5v-37h11c7.56,0,11.94,3,11.94,9.35,0,6.54-4.38,9.65-11.94,9.65h-9v5h9.22c10.38,0,16.38-5.47,16.38-14.77,0-8.94-6-14.23-16.38-14.23" transform="translate(-1063 -1664.29)"/><path class="cls-1" d="M1181.77,1692.81c6.06-2,9.42-6.7,9.42-13.66,0-8.94-6.06-14.14-16.56-14.14h-16.2v42h5v-37h11.2c7.62,0,11.94,3,11.94,9.35,0,6.54-4.32,9.65-11.94,9.65h-9.2v5h9.2c1,0,1.92-.19,2.82-.25l8.7,13.25h5.46Z" transform="translate(-1063 -1664.29)"/><rect class="cls-1" x="151.43" y="7.71" width="5" height="35"/><polygon class="cls-1" points="137.43 0.71 137.43 5.71 151.43 5.71 156.43 5.71 170.43 5.71 170.43 0.71 137.43 0.71"/><polygon class="cls-1" points="197.81 21.11 184.65 0.71 179.73 0.71 195.49 26.21 197.81 21.11"/><polygon class="cls-1" points="212.63 0.71 199.19 22.69 199.17 22.71 196.73 28.54 196.73 28.66 196.73 42.71 201.73 42.71 201.73 28.48 217.55 0.71 212.63 0.71"/><path class="cls-1" d="M1312.59,1692.81c6.06-2,9.42-6.7,9.42-13.66,0-8.94-6.06-14.14-16.56-14.14h-15.88v42h5v-37h10.88c7.62,0,11.94,3,11.94,9.35,0,6.54-4.32,9.65-11.94,9.65h-8.88v5h8.88c1,0,1.92-.19,2.82-.25L1317,1707h5.46Z" transform="translate(-1063 -1664.29)"/></svg>